<svg xmlns="http://www.w3.org/2000/svg" width="97.1" height="140" viewBox="0 0 97.1 140">
  <g id="booking_1_" data-name="booking(1)" transform="translate(-88 -8)">
    <path id="Path_187" data-name="Path 187" d="M164.774,91.661V17.032A9.042,9.042,0,0,0,155.742,8H97.032A9.042,9.042,0,0,0,88,17.032V138.968A9.042,9.042,0,0,0,97.032,148h58.71a9.042,9.042,0,0,0,9.032-9.032V136.6a22.581,22.581,0,0,0,0-44.935ZM137.042,12.516l-1.129,4.516H116.861l-1.129-4.516Zm23.216,126.452a4.522,4.522,0,0,1-4.516,4.516H97.032a4.522,4.522,0,0,1-4.516-4.516V17.032a4.522,4.522,0,0,1,4.516-4.516h14.042l1.832,7.322a2.258,2.258,0,0,0,2.19,1.71h22.581a2.258,2.258,0,0,0,2.19-1.71l1.832-7.322h14.042a4.522,4.522,0,0,1,4.516,4.516V91.661a22.581,22.581,0,0,0,0,44.935Zm2.258-6.774a18.065,18.065,0,1,1,18.065-18.065,18.065,18.065,0,0,1-18.065,18.065Z" fill="#3F4446"/>
    <path id="Path_189" data-name="Path 189" d="M339.473,352.493a2.258,2.258,0,0,0-3.175.352l-7.739,9.674-5.052-3.368A2.258,2.258,0,1,0,321,362.908l6.774,4.516a2.258,2.258,0,0,0,3.017-.467l9.032-11.29A2.258,2.258,0,0,0,339.473,352.493Z" transform="translate(-166.514 -246.901)" fill="#3F4446"/>
    <path id="Path_190" data-name="Path 190" d="M160.839,296H138.258a2.258,2.258,0,0,0,0,4.516h22.581a2.258,2.258,0,0,0,0-4.516Z" transform="translate(-34.452 -206.71)" fill="#3F4446"/>
    <path id="Path_191" data-name="Path 191" d="M160.839,320H138.258a2.258,2.258,0,0,0,0,4.516h22.581a2.258,2.258,0,0,0,0-4.516Z" transform="translate(-34.452 -223.935)" fill="#3F4446"/>
    <path id="Path_192" data-name="Path 192" d="M147.29,344h-9.032a2.258,2.258,0,0,0,0,4.516h9.032a2.258,2.258,0,1,0,0-4.516Z" transform="translate(-34.452 -241.161)" fill="#3F4446"/>
    <path id="Path_193" data-name="Path 193" d="M196.516,344h-2.258a2.258,2.258,0,0,0,0,4.516h2.258a2.258,2.258,0,1,0,0-4.516Z" transform="translate(-74.645 -241.161)" fill="#3F4446"/>
    <g id="Group_171" data-name="Group 171" transform="translate(-394.061 -97)">
      <g id="car" transform="translate(502.061 94.3)">
        <g id="Group_5" data-name="Group 5" transform="translate(0 42.7)">
          <g id="Group_4" data-name="Group 4">
            <path id="Path_6" data-name="Path 6" d="M36.594,54.9l-4.563-10.68a2.491,2.491,0,0,0-2.3-1.516H10.266a2.5,2.5,0,0,0-2.3,1.516L3.406,54.9A5.842,5.842,0,0,0,0,60.2v6.664a2.507,2.507,0,0,0,2.5,2.5h.836v4.164a2.507,2.507,0,0,0,2.5,2.5H9.172a2.507,2.507,0,0,0,2.5-2.5V69.364H28.336v4.164a2.507,2.507,0,0,0,2.5,2.5h3.336a2.507,2.507,0,0,0,2.5-2.5V69.364H37.5a2.507,2.507,0,0,0,2.5-2.5V60.2A5.842,5.842,0,0,0,36.594,54.9ZM9.5,44.872a.837.837,0,0,1,.766-.508H29.734a.83.83,0,0,1,.766.5l4.063,9.508c-.133-.008-.266-.016-.391-.016H5.836c-.133,0-.266.008-.391.016ZM10,73.528a.837.837,0,0,1-.836.836H5.836A.837.837,0,0,1,5,73.528V69.364h5Zm24.164.836H30.828a.837.837,0,0,1-.836-.836V69.364h5v4.164H35A.837.837,0,0,1,34.164,74.364ZM37.5,67.7H2.5a.837.837,0,0,1-.836-.836V60.2a4.168,4.168,0,0,1,4.164-4.164H34.164A4.168,4.168,0,0,1,38.328,60.2v6.664h.008A.837.837,0,0,1,37.5,67.7Z" transform="translate(0 -42.7)" fill="#3F4446"/>
          </g>
        </g>
        <g id="Group_7" data-name="Group 7" transform="translate(3.336 57.7)">
          <g id="Group_6" data-name="Group 6">
            <path id="Path_7" data-name="Path 7" d="M46.864,234.7a4.164,4.164,0,1,0,4.164,4.164A4.168,4.168,0,0,0,46.864,234.7Zm0,6.664a2.5,2.5,0,1,1,2.5-2.5A2.507,2.507,0,0,1,46.864,241.364Z" transform="translate(-42.7 -234.7)" fill="#3F4446"/>
          </g>
        </g>
        <g id="Group_9" data-name="Group 9" transform="translate(28.336 57.7)">
          <g id="Group_8" data-name="Group 8">
            <path id="Path_8" data-name="Path 8" d="M366.864,234.7a4.164,4.164,0,1,0,4.164,4.164A4.168,4.168,0,0,0,366.864,234.7Zm0,6.664a2.5,2.5,0,1,1,2.5-2.5A2.507,2.507,0,0,1,366.864,241.364Z" transform="translate(-362.7 -234.7)" fill="#3F4446"/>
          </g>
        </g>
        <g id="Group_11" data-name="Group 11" transform="translate(13.328 62.7)">
          <g id="Group_10" data-name="Group 10">
            <path id="Path_9" data-name="Path 9" d="M183.108,298.7H171.436a.836.836,0,1,0,0,1.672H183.1a.836.836,0,0,0,.008-1.672Z" transform="translate(-170.6 -298.7)" fill="#3F4446"/>
          </g>
        </g>
        <g id="Group_13" data-name="Group 13" transform="translate(13.328 59.364)">
          <g id="Group_12" data-name="Group 12">
            <path id="Path_10" data-name="Path 10" d="M183.108,256H171.436a.836.836,0,1,0,0,1.672H183.1a.836.836,0,0,0,.008-1.672Z" transform="translate(-170.6 -256)" fill="#3F4446"/>
          </g>
        </g>
      </g>
    </g>
  </g>
</svg>
