<svg xmlns="http://www.w3.org/2000/svg" width="23.939" height="19.946" viewBox="0 0 23.939 19.946">
  <g id="car" transform="translate(0 -42.7)">
    <g id="Group_5" data-name="Group 5" transform="translate(0 42.7)">
      <g id="Group_4" data-name="Group 4">
        <path id="Path_6" data-name="Path 6" d="M21.9,50,19.17,43.607A1.491,1.491,0,0,0,17.8,42.7H6.144a1.5,1.5,0,0,0-1.375.907L2.039,50A3.5,3.5,0,0,0,0,53.173v3.988a1.5,1.5,0,0,0,1.5,1.5H2V61.15a1.5,1.5,0,0,0,1.5,1.5h2a1.5,1.5,0,0,0,1.5-1.5V58.658h9.973V61.15a1.5,1.5,0,0,0,1.5,1.5h2a1.5,1.5,0,0,0,1.5-1.5V58.658h.5a1.5,1.5,0,0,0,1.5-1.5V53.173A3.5,3.5,0,0,0,21.9,50ZM5.686,44a.5.5,0,0,1,.458-.3H17.8a.5.5,0,0,1,.458.3l2.431,5.69c-.079,0-.159-.009-.234-.009H3.493c-.079,0-.159,0-.234.009Zm.3,17.15a.5.5,0,0,1-.5.5H3.493a.5.5,0,0,1-.5-.5V58.658H5.985Zm14.462.5h-2a.5.5,0,0,1-.5-.5V58.658h2.992V61.15h0A.5.5,0,0,1,20.446,61.65Zm2-3.988H1.5a.5.5,0,0,1-.5-.5V53.173a2.494,2.494,0,0,1,2.492-2.492H20.446a2.494,2.494,0,0,1,2.492,2.492v3.988h0A.5.5,0,0,1,22.443,57.662Z" transform="translate(0 -42.7)" fill="#3F4446"/>
      </g>
    </g>
    <g id="Group_7" data-name="Group 7" transform="translate(1.996 51.677)">
      <g id="Group_6" data-name="Group 6">
        <path id="Path_7" data-name="Path 7" d="M45.192,234.7a2.492,2.492,0,1,0,2.492,2.492A2.494,2.494,0,0,0,45.192,234.7Zm0,3.988a1.5,1.5,0,1,1,1.5-1.5A1.5,1.5,0,0,1,45.192,238.688Z" transform="translate(-42.7 -234.7)" fill="#3F4446"/>
      </g>
    </g>
    <g id="Group_9" data-name="Group 9" transform="translate(16.958 51.677)">
      <g id="Group_8" data-name="Group 8">
        <path id="Path_8" data-name="Path 8" d="M365.192,234.7a2.492,2.492,0,1,0,2.492,2.492A2.494,2.494,0,0,0,365.192,234.7Zm0,3.988a1.5,1.5,0,1,1,1.5-1.5A1.5,1.5,0,0,1,365.192,238.688Z" transform="translate(-362.7 -234.7)" fill="#3F4446"/>
      </g>
    </g>
    <g id="Group_11" data-name="Group 11" transform="translate(7.977 54.669)">
      <g id="Group_10" data-name="Group 10">
        <path id="Path_9" data-name="Path 9" d="M178.086,298.7H171.1a.5.5,0,1,0,0,1h6.981a.5.5,0,0,0,0-1Z" transform="translate(-170.6 -298.7)" fill="#3F4446"/>
      </g>
    </g>
    <g id="Group_13" data-name="Group 13" transform="translate(7.977 52.673)">
      <g id="Group_12" data-name="Group 12">
        <path id="Path_10" data-name="Path 10" d="M178.086,256H171.1a.5.5,0,1,0,0,1h6.981a.5.5,0,0,0,0-1Z" transform="translate(-170.6 -256)" fill="#3F4446"/>
      </g>
    </g>
  </g>
</svg>
