<svg xmlns="http://www.w3.org/2000/svg" width="115.733" height="115.726" viewBox="0 0 115.733 115.726">
  <g id="driver_1_" data-name="driver(1)" transform="translate(-1.998 -2)">
    <g id="Group_176" data-name="Group 176" transform="translate(1.998 84.937)">
      <g id="Group_172" data-name="Group 172" transform="translate(0 0.002)">
        <path id="Path_194" data-name="Path 194" d="M3.927,64.289A1.927,1.927,0,0,1,2,62.36,17.378,17.378,0,0,1,19.357,45a1.929,1.929,0,1,1,0,3.858,13.519,13.519,0,0,0-13.5,13.5,1.927,1.927,0,0,1-1.929,1.929Z" transform="translate(-1.998 -45.001)" fill="#3F4446"/>
      </g>
      <g id="Group_173" data-name="Group 173" transform="translate(15.43 0.002)">
        <path id="Path_195" data-name="Path 195" d="M23.5,48.86l-11.573,0a1.929,1.929,0,1,1,0-3.858L23.5,45a1.929,1.929,0,1,1,0,3.858Z" transform="translate(-9.998 -45.001)" fill="#3F4446"/>
      </g>
      <g id="Group_174" data-name="Group 174" transform="translate(54.005)">
        <path id="Path_196" data-name="Path 196" d="M39.943,48.861l-8.016,0a1.929,1.929,0,0,1,0-3.858l8.016,0a1.929,1.929,0,1,1,0,3.858Z" transform="translate(-29.998 -45)" fill="#3F4446"/>
      </g>
      <g id="Group_175" data-name="Group 175" transform="translate(0 15.432)">
        <path id="Path_197" data-name="Path 197" d="M3.931,70.358A1.928,1.928,0,0,1,2,68.429l0-13.5a1.929,1.929,0,0,1,3.858,0l0,13.5A1.928,1.928,0,0,1,3.931,70.358Z" transform="translate(-1.998 -53.001)" fill="#3F4446"/>
      </g>
    </g>
    <g id="Group_177" data-name="Group 177" transform="translate(29.001 73.887)">
      <path id="Path_198" data-name="Path 198" d="M17.927,54.182A1.927,1.927,0,0,1,16,52.253V41.2a1.929,1.929,0,0,1,3.858,0V52.253A1.927,1.927,0,0,1,17.927,54.182Z" transform="translate(-15.998 -39.271)" fill="#3F4446"/>
    </g>
    <g id="Group_178" data-name="Group 178" transform="translate(56.003 73.887)">
      <path id="Path_199" data-name="Path 199" d="M31.927,54.178A1.927,1.927,0,0,1,30,52.25V41.2a1.929,1.929,0,0,1,3.858,0V52.25A1.927,1.927,0,0,1,31.927,54.178Z" transform="translate(-29.998 -39.271)" fill="#3F4446"/>
    </g>
    <g id="Group_179" data-name="Group 179" transform="translate(13.571 48.292)">
      <path id="Path_200" data-name="Path 200" d="M38.858,58.79A30.9,30.9,0,0,1,8,27.93a1.929,1.929,0,0,1,3.858,0,27,27,0,0,0,54.005,0,1.929,1.929,0,1,1,3.858,0,30.9,30.9,0,0,1-30.86,30.86Z" transform="translate(-7.998 -26.001)" fill="#3F4446"/>
    </g>
    <g id="Group_180" data-name="Group 180" transform="translate(13.571 27.074)">
      <path id="Path_201" data-name="Path 201" d="M9.927,40.076A1.927,1.927,0,0,1,8,38.147V16.929a1.929,1.929,0,1,1,3.858,0V38.147A1.927,1.927,0,0,1,9.927,40.076Z" transform="translate(-7.998 -15)" fill="#3F4446"/>
    </g>
    <g id="Group_181" data-name="Group 181" transform="translate(71.433 25.149)">
      <path id="Path_202" data-name="Path 202" d="M39.927,41A1.927,1.927,0,0,1,38,39.074V15.931a1.929,1.929,0,1,1,3.858,0V39.074A1.927,1.927,0,0,1,39.927,41Z" transform="translate(-37.998 -14.002)" fill="#3F4446"/>
    </g>
    <g id="Group_182" data-name="Group 182" transform="translate(57.932 11.648)">
      <path id="Path_203" data-name="Path 203" d="M46.428,24.361A1.927,1.927,0,0,1,44.5,22.432,11.584,11.584,0,0,0,32.927,10.86a1.929,1.929,0,0,1,0-3.858,15.448,15.448,0,0,1,15.43,15.43A1.927,1.927,0,0,1,46.428,24.361Z" transform="translate(-30.998 -7.002)" fill="#3F4446"/>
    </g>
    <g id="Group_183" data-name="Group 183" transform="translate(57.932 2)">
      <path id="Path_204" data-name="Path 204" d="M32.927,15.505A1.927,1.927,0,0,1,31,13.576V3.929a1.929,1.929,0,0,1,3.858,0v9.648a1.927,1.927,0,0,1-1.929,1.929Z" transform="translate(-30.998 -2)" fill="#3F4446"/>
    </g>
    <g id="Group_184" data-name="Group 184" transform="translate(38.644 2)">
      <path id="Path_205" data-name="Path 205" d="M42.214,5.858H22.927a1.929,1.929,0,0,1,0-3.858H42.214a1.929,1.929,0,1,1,0,3.858Z" transform="translate(-20.998 -2)" fill="#3F4446"/>
    </g>
    <g id="Group_185" data-name="Group 185" transform="translate(13.571 2)">
      <path id="Path_206" data-name="Path 206" d="M9.927,30.931A1.927,1.927,0,0,1,8,29,27.032,27.032,0,0,1,35,2a1.929,1.929,0,0,1,0,3.858A23.171,23.171,0,0,0,11.856,29a1.927,1.927,0,0,1-1.929,1.929Z" transform="translate(-7.998 -2)" fill="#3F4446"/>
    </g>
    <g id="Group_189" data-name="Group 189" transform="translate(13.57 29.001)">
      <g id="Group_186" data-name="Group 186" transform="translate(50.148 0.001)">
        <path id="Path_207" data-name="Path 207" d="M43.642,27.573a1.923,1.923,0,0,1-1.364-.565l-7.715-7.715a1.928,1.928,0,1,1,2.727-2.727l7.715,7.715a1.929,1.929,0,0,1-1.364,3.292Z" transform="translate(-33.998 -16)" fill="#3F4446"/>
      </g>
      <g id="Group_187" data-name="Group 187" transform="translate(7.715)">
        <path id="Path_208" data-name="Path 208" d="M35.143,25.644a47.618,47.618,0,0,1-22.21-6.062,1.929,1.929,0,0,1,1.983-3.31c.095.058,9.356,5.514,20.227,5.514s20.132-5.456,20.225-5.512a1.929,1.929,0,0,1,1.983,3.31,47.632,47.632,0,0,1-22.208,6.06Z" transform="translate(-11.998 -15.999)" fill="#3F4446"/>
      </g>
      <g id="Group_188" data-name="Group 188" transform="translate(0 0.001)">
        <path id="Path_209" data-name="Path 209" d="M9.927,27.573A1.929,1.929,0,0,1,8.563,24.28l7.715-7.715a1.928,1.928,0,0,1,2.727,2.727l-7.715,7.715A1.923,1.923,0,0,1,9.927,27.573Z" transform="translate(-7.998 -16)" fill="#3F4446"/>
      </g>
    </g>
    <g id="Group_190" data-name="Group 190" transform="translate(29 84.94)">
      <path id="Path_210" data-name="Path 210" d="M23.711,52.713a1.936,1.936,0,0,1-1.069-.324l-5.786-3.854A1.929,1.929,0,0,1,19,45.326l5.786,3.854a1.929,1.929,0,0,1-1.072,3.533Z" transform="translate(-15.998 -45.002)" fill="#3F4446"/>
    </g>
    <g id="Group_191" data-name="Group 191" transform="translate(34.786 86.866)">
      <path id="Path_211" data-name="Path 211" d="M20.925,51.786a1.929,1.929,0,0,1-.465-3.8l7.715-1.927a1.928,1.928,0,1,1,.934,3.742l-7.715,1.927A1.96,1.96,0,0,1,20.925,51.786Z" transform="translate(-18.998 -46)" fill="#3F4446"/>
    </g>
    <g id="Group_192" data-name="Group 192" transform="translate(50.216 84.94)">
      <path id="Path_212" data-name="Path 212" d="M28.929,52.713a1.929,1.929,0,0,1-1.072-3.533l5.786-3.854a1.929,1.929,0,0,1,2.141,3.209L30,52.389a1.936,1.936,0,0,1-1.069.324Z" transform="translate(-26.998 -45.002)" fill="#3F4446"/>
    </g>
    <g id="Group_193" data-name="Group 193" transform="translate(42.502 86.867)">
      <path id="Path_213" data-name="Path 213" d="M32.644,51.786a1.96,1.96,0,0,1-.469-.058L24.46,49.8a1.928,1.928,0,1,1,.934-3.742l7.715,1.927a1.929,1.929,0,0,1-.465,3.8Z" transform="translate(-22.998 -46.001)" fill="#3F4446"/>
    </g>
    <g id="Group_194" data-name="Group 194" transform="translate(42.55 96.509)">
      <path id="Path_214" data-name="Path 214" d="M24.961,54.858A1.929,1.929,0,0,1,24.94,51h.021a1.929,1.929,0,1,1,0,3.858Z" transform="translate(-23.023 -51)" fill="#3F4446"/>
    </g>
    <g id="Group_195" data-name="Group 195" transform="translate(42.55 108.084)">
      <path id="Path_215" data-name="Path 215" d="M24.961,60.859A1.929,1.929,0,0,1,24.94,57h.021a1.929,1.929,0,1,1,0,3.858Z" transform="translate(-23.023 -57.001)" fill="#3F4446"/>
    </g>
    <g id="Group_202" data-name="Group 202" transform="translate(63.726 63.713)">
      <g id="Group_196" data-name="Group 196">
        <path id="Path_216" data-name="Path 216" d="M61,88.009A27.007,27.007,0,1,1,88.007,61,27.035,27.035,0,0,1,61,88.009Zm0-50.156A23.149,23.149,0,1,0,84.15,61,23.173,23.173,0,0,0,61,37.854Z" transform="translate(-34.002 -33.996)" fill="#3F4446"/>
      </g>
      <g id="Group_197" data-name="Group 197" transform="translate(5.786 5.786)">
        <path id="Path_217" data-name="Path 217" d="M58.218,79.436A21.22,21.22,0,1,1,79.435,58.214,21.244,21.244,0,0,1,58.218,79.436Zm0-38.583A17.363,17.363,0,1,0,75.577,58.214,17.379,17.379,0,0,0,58.218,40.854Z" transform="translate(-37.002 -36.996)" fill="#3F4446"/>
      </g>
      <g id="Group_198" data-name="Group 198" transform="translate(21.216 21.214)">
        <path id="Path_218" data-name="Path 218" d="M50.788,56.569a5.787,5.787,0,1,1,5.786-5.786A5.793,5.793,0,0,1,50.788,56.569Zm0-7.717a1.93,1.93,0,1,0,1.929,1.931A1.931,1.931,0,0,0,50.788,48.853Z" transform="translate(-45.002 -44.995)" fill="#3F4446"/>
      </g>
      <g id="Group_199" data-name="Group 199" transform="translate(8.367 15.43)">
        <path id="Path_219" data-name="Path 219" d="M73.683,45.854H40.269a1.929,1.929,0,0,1,0-3.858H73.683a1.929,1.929,0,1,1,0,3.858Z" transform="translate(-38.34 -41.996)" fill="#3F4446"/>
      </g>
      <g id="Group_200" data-name="Group 200" transform="translate(28.935 23.959)">
        <path id="Path_220" data-name="Path 220" d="M50.933,70.279H50.9A1.929,1.929,0,0,1,49,68.313,23.008,23.008,0,0,1,65.8,46.493,1.928,1.928,0,1,1,66.853,50.2,19.171,19.171,0,0,0,52.862,68.385a1.93,1.93,0,0,1-1.929,1.894Z" transform="translate(-49.004 -46.418)" fill="#3F4446"/>
      </g>
      <g id="Group_201" data-name="Group 201" transform="translate(5.824 23.958)">
        <path id="Path_221" data-name="Path 221" d="M54.346,70.3A1.931,1.931,0,0,1,52.418,68.4,19.156,19.156,0,0,0,38.425,50.2a1.928,1.928,0,1,1,1.051-3.709,22.993,22.993,0,0,1,16.8,21.843A1.93,1.93,0,0,1,54.381,70.3a.21.21,0,0,0-.035,0Z" transform="translate(-37.022 -46.418)" fill="#3F4446"/>
      </g>
    </g>
  </g>
</svg>
