<svg xmlns="http://www.w3.org/2000/svg" width="23" height="18.79" viewBox="0 0 23 18.79">
  <path id="XMLID_874_" d="M21.877,56.285v-.438a2.3,2.3,0,0,0-1.048-1.929V49.14a2.283,2.283,0,0,0-2.28-2.28H4.451a2.283,2.283,0,0,0-2.28,2.28v4.778a2.3,2.3,0,0,0-1.048,1.929v.438A1.509,1.509,0,0,0,0,57.741v5.125a1.508,1.508,0,0,0,1.434,1.5v.607a.673.673,0,0,0,1.345,0v-.6H20.221v.6a.673.673,0,0,0,1.345,0v-.607A1.508,1.508,0,0,0,23,62.867V57.741A1.508,1.508,0,0,0,21.877,56.285ZM3.516,49.14a.936.936,0,0,1,.935-.935h14.1a.936.936,0,0,1,.935.935v4.405h-.9V52.36a1.506,1.506,0,0,0-1.5-1.5H13.464a1.506,1.506,0,0,0-1.5,1.5v1.185h-.918V52.36a1.506,1.506,0,0,0-1.5-1.5H5.917a1.506,1.506,0,0,0-1.5,1.5v1.185h-.9Zm13.726,3.22v1.026a.16.16,0,0,1-.16.16H13.464a.16.16,0,0,1-.16-.16V52.36a.16.16,0,0,1,.16-.16h3.619a.16.16,0,0,1,.16.16Zm-7.546,0v1.026a.16.16,0,0,1-.16.16H5.917a.16.16,0,0,1-.16-.16V52.36a.16.16,0,0,1,.16-.16H9.536A.16.16,0,0,1,9.7,52.36ZM2.468,55.847a.958.958,0,0,1,.957-.957H19.576a.958.958,0,0,1,.957.957v.388H2.468Zm19.187,7.02a.161.161,0,0,1-.161.161H1.506a.161.161,0,0,1-.161-.161V57.741a.161.161,0,0,1,.161-.161H21.494a.161.161,0,0,1,.161.161v5.125Z" transform="translate(0 -46.86)" fill="#3F4446"/>
</svg>
