<?xml version="1.0" encoding="utf-8"?>
<!-- Generator: Adobe Illustrator 23.0.3, SVG Export Plug-In . SVG Version: 6.00 Build 0)  -->
<svg version="1.1" id="Layer_1" xmlns="http://www.w3.org/2000/svg" xmlns:xlink="http://www.w3.org/1999/xlink" x="0px" y="0px"
	 viewBox="0 0 180.7 180.7" style="enable-background:new 0 0 180.7 180.7;" xml:space="preserve">
<style type="text/css">
	.st0{fill:url(#SVGID_1_);}
	.st1{fill:url(#SVGID_2_);}
	.st2{fill:url(#SVGID_3_);}
	.st3{fill:url(#SVGID_4_);}
	.st4{fill:url(#SVGID_5_);}
	.st5{fill:url(#SVGID_6_);}
	.st6{fill:url(#SVGID_7_);}
	.st7{fill:url(#SVGID_8_);}
	.st8{fill:url(#SVGID_9_);}
	.st9{fill:url(#SVGID_10_);}
	.st10{fill:url(#SVGID_11_);}
	.st11{fill:url(#SVGID_12_);}
	.st12{fill:url(#SVGID_13_);}
	.st13{fill:url(#SVGID_14_);}
	.st14{fill:url(#SVGID_15_);}
	.st15{fill:url(#SVGID_16_);}
	.st16{fill:url(#SVGID_17_);}
	.st17{fill:url(#SVGID_18_);}
	.st18{fill:url(#SVGID_19_);}
	.st19{fill:url(#SVGID_20_);}
	.st20{fill:url(#SVGID_21_);}
	.st21{fill:url(#SVGID_22_);}
	.st22{fill:url(#SVGID_23_);}
	.st23{fill:url(#SVGID_24_);}
	.st24{fill:#fff;}
	.st25{fill:#fff;}
	.st26{fill:#2B3481;}
	.st27{fill:#27AAE2;}
	.st28{fill:#F2652F;}
	.st29{fill:#FEC611;}
	.st30{fill:#B61F26;}
	.st31{fill:#6F5197;}
	.st32{fill:#D6DF24;}
	.st33{fill:#C31A81;}
	.st34{fill:#E97915;}
	.st35{fill:#333333;}
	.st36{fill:#FBC906;}
	.st37{fill:#FBCA04;}
	.st38{fill:#E7780F;}
	.st39{fill:#EA770D;}
	.st40{fill:#FFA044;}
	.st41{fill:#E47813;}
	.st42{fill:#EB760D;}
	.st43{fill:#E10001;}
</style>
<g>
	<g>
		<g>
			<g>
				<path class="st32" d="M32.7,82.6c0-12.4-0.3-23.6,0.1-34.8c0.4-9.9,5.6-15,15.6-17.1c2.5-0.5,4.9-0.7,7.4-0.7
					c23.7,0,47.4,0,71.1,0c3.6,0,6.9,0.6,10.2,1.8c5.1,1.8,8.3,5.4,10.1,10.3c0.9,2.5,1.6,5.3,1.6,8c0.2,10,0.1,19.9,0,29.9
					c0,1.8-1.4,2.7-3,2c-0.2-0.1-0.5-0.2-0.7-0.3C136,77,136,77,136,66.5c0-5.5,0.1-11,0-16.5c-0.1-5.7-2-7.6-7.6-7.8
					c-3.5-0.1-7,0-10.5,0c-20.2,0-40.4,0-60.6,0c-2,0-4-0.1-6,0.1c-4,0.4-6.3,2.7-6.6,6.8c-0.2,2.2-0.1,4.5-0.1,6.7c0,6-0.1,12,0,18
					c0,2.2-0.4,3.7-2.8,4.6C39.1,79.3,36.6,80.7,32.7,82.6z"/>
			</g>
			<g>
				<g>
					<path class="st32" d="M155.2,109.4c0-3.3-1-6.4-2.9-9.2c-3-4.4-6.6-8.1-11.2-10.9c-2.3-1.4-4.6-3-7.1-4c-2.1-0.8-2.4-2.2-2.4-4
						c0-1.5-0.1-3,0-4.5c0.1-2.6-0.7-4.8-1.9-7.1c-6.1-11.7-24.2-18.8-35.9-10c-2.7,2-4.8,1.4-7.4-0.4c-5.7-4-12.1-4.6-18.6-2.6
						c-8.7,2.8-15.6,7.7-18.2,17.1c-0.7,2.5-0.7,4.9-0.4,7.4c0.2,2-0.4,3.2-2.2,4.2c-3.5,1.9-7,3.9-10.2,6.3
						c-6.7,5-11.1,11.6-11.4,20.1c-0.3,11.5-0.1,22.9-0.1,34.4c0,3.9,0.5,4.3,4.3,4.4c1.7,0.1,3.5,0,5.2-0.1c2.2-0.2,3-1,3.1-3.3
						c0.1-1.7,0.1-3.5,0.1-5.2c0-9.2,0.2-18.5-0.1-27.7c-0.2-6.2,2.4-10.5,7.4-13.6c7.2-4.6,15-7.7,23.4-9.4
						c10.1-2.1,20.3-1.9,30.5-1.5c10.3,0.4,20.2,2.9,29.6,7.1c3.5,1.5,6.5,3.6,9.5,5.9c2.5,2,4.1,4.6,4.4,7.6
						c0.4,4.4,0.2,8.9,0.1,13.4c0,1.5-1.2,2.1-2.5,2.2c-2,0.1-4,0.1-6,0.1c-13,0-25.9,0-38.9,0s-25.9,0-38.9,0c-2,0-4,0-6,0.1
						c-2.7,0.2-3.8,1.1-3.9,3.6c-0.3,9.2-0.7,8.8,8.2,8.8c26.4,0,52.9,0,79.3,0c2.2,0,4.5,0.1,6.7,0.2c1,0.1,1.8,0.7,2,1.9
						c0.1,0.7,0.2,1.5,0.2,2.2c-0.4,8.8,1.4,7.8,8.7,7.7c2.5,0,3.2-0.7,3.2-3.1C155.3,134.9,155.3,122.2,155.2,109.4z M82.3,77.5
						c-2.2,0.2-4.4,0.3-6.6,0.5c-2.9,0.4-5.8,0.9-8.8,1.4c0,0,0-0.1,0-0.1c-0.5,0.1-1,0.2-1.5,0.2c-1.2,0.2-2.4,1.1-3.5-0.1
						c-1.1-1.3-0.7-2.8,0-4.2c2.9-5.3,12.3-9.7,19.3-4.7c1.5,1,2.4,2.4,2.7,4.2C84.3,76.3,83.7,77.4,82.3,77.5z M117.3,80
						c-6.1-0.8-12.2-1.7-18.3-2.5c-1.6-0.2-2.3-1.6-1.9-3.3c0.4-1.5,1.2-2.8,2.5-3.5c2.4-1.4,4.9-2.4,7.5-2c4.4,0,7.8,1.9,10.5,5
						c1,1.2,1.4,2.5,1.6,4.1C119.4,79.2,118.6,80.2,117.3,80z"/>
				</g>
			</g>
		</g>
	</g>
</g>
</svg>
