<svg xmlns="http://www.w3.org/2000/svg" width="31" height="19.286" viewBox="0 0 31 19.286">
  <g id="airplane" transform="translate(-0.001 -96.736)">
    <path id="Path_5" data-name="Path 5" d="M30.845,101.182a2.572,2.572,0,0,0-1.339-1.461,9.313,9.313,0,0,0-7.168-.313l-2.458.895L12.863,96.83a.909.909,0,0,0-.713-.039L7.96,98.315a.908.908,0,0,0-.219,1.591l4.446,3.2-6.179,2.249-2.293-1.859a.908.908,0,0,0-.883-.148L.6,104.158a.908.908,0,0,0-.543,1.164l1.423,3.91a5.069,5.069,0,0,0,6.5,3.03l5.443-1.981-1.174,4.609a.908.908,0,0,0,1.191,1.078l4.189-1.525a.908.908,0,0,0,.521-.489l2.813-6.418L29.3,104.5A2.592,2.592,0,0,0,30.845,101.182ZM10.2,99.434l2.209-.8,5.114,2.531-3.267,1.189Zm18.479,3.36-8.7,3.167a.908.908,0,0,0-.521.489l-2.813,6.418-2.209.8,1.174-4.609a.908.908,0,0,0-1.191-1.078l-7.058,2.569a3.253,3.253,0,0,1-4.169-1.944l-1.113-3.056.9-.327,2.293,1.859a.909.909,0,0,0,.883.148l16.813-6.119a7.508,7.508,0,0,1,5.779.252.773.773,0,0,1-.062,1.427Z" transform="translate(0 0)" fill="#3F4446"/>
  </g>
</svg>
