<?xml version="1.0" encoding="utf-8"?>
<!-- Svg Vector Icons : http://www.onlinewebfonts.com/icon -->
<!DOCTYPE svg PUBLIC "-//W3C//DTD SVG 1.1//EN" "http://www.w3.org/Graphics/SVG/1.1/DTD/svg11.dtd">
<svg version="1.1" xmlns="http://www.w3.org/2000/svg" xmlns:xlink="http://www.w3.org/1999/xlink" x="0px" y="0px" viewBox="0 0 1000 1000" enable-background="new 0 0 1000 1000" xml:space="preserve">
<metadata> Svg Vector Icons : http://www.onlinewebfonts.com/icon </metadata>
<g><path d="M823.7,966c-35.3-76.9-97.1-139.1-173.8-174.8c-0.1-0.2-0.2-0.3-0.3-0.5C628,761.7,528.2,594.2,528.3,27V10h-56.5v17c0,324-32.5,517.7-64.5,629.5c-16,55.9-31.8,91.3-43.3,112.4c-5.8,10.6-10.5,17.6-13.5,21.7c-0.1,0.2-0.3,0.4-0.4,0.5c-76.6,35.7-138.4,97.9-173.7,174.7L165.3,990h166.5l5.1-6.4c38.5-47.9,97.1-78.5,163.3-78.5c65.9,0,124.7,30.6,163.2,78.5l5,6.4h166.4L823.7,966z M500.1,248.8c8.9,164.7,27.3,283.9,47.6,369.4h-95.2C472.7,532.7,491.1,413.5,500.1,248.8z M443.9,652.1h112.3c15,55.7,30.5,94.2,43.3,120.1c-31.5-9.2-64.9-14.1-99.4-14.1c-34.6,0-67.9,4.9-99.5,14.1C413.4,746.3,428.9,707.8,443.9,652.1z M684.6,956.1c-44.6-51.9-110.7-84.9-184.4-84.8c-73.8-0.1-140,32.9-184.5,84.8h-96c34.1-60.4,87-108.7,150.8-136.8l0.3,0.3c0.1-0.2,0.4-0.4,0.8-0.8c39.4-17.2,82.9-26.8,128.7-26.8c45.8,0,89.3,9.6,128.7,26.8c0.3,0.3,0.5,0.6,0.6,0.7l0.3-0.3c63.8,28.2,116.7,76.5,150.8,136.8H684.6z M557.8,739.7l-24.6-67.9h-70.8l-0.8,3.4l-15.2,69l7.7-3.6c7.9-3.7,24.6-5,41.5-4.9c27,0,55.2,3.1,55.3,3.1L557.8,739.7z M495.8,727.3c-13.8,0-27.2,0.7-37.5,3.3l11.1-50.2h58l17.8,49.5C535.1,728.9,515.2,727.3,495.8,727.3z"/></g>
</svg>