<svg xmlns="http://www.w3.org/2000/svg" width="261" height="140.078" viewBox="0 0 261 140.078">
  <g id="Group_67" data-name="Group 67" transform="translate(-2248 -1094)">
    <text id="Ole_Sereni" data-name="Ole Sereni" transform="translate(2248 1113)" fill="#3f4446" font-size="18" font-family="inherit" font-weight="300"><tspan x="0" y="0">Ole Sereni</tspan></text>
    <text id="Nairobi" transform="translate(2248 1140.078)" fill="#0c438c" font-size="18" font-family="inherit" font-weight="600"><tspan x="0" y="0">Nairobi</tspan></text>
    <text id="Starting_from_KES_7_136" data-name="Starting from KES 7, 136" transform="translate(2248 1181)" fill="#3f4446" font-size="20" font-family="inherit" font-weight="600"><tspan x="0" y="0">Starting from KES 7, 136</tspan></text>
    <text id="Wonderful" transform="translate(2301 1221)" fill="#3f4446" font-size="18" font-family="inherit" font-weight="300"><tspan x="0" y="0">Wonderful</tspan></text>
    <text id="_323_Reviews" data-name="323 Reviews" transform="translate(2411 1221)" fill="#3f4446" font-size="18" font-family="inherit" font-weight="300"><tspan x="0" y="0">323 Reviews</tspan></text>
    <g id="favorite" transform="translate(2248 1160.137)">
      <path id="Path_47" data-name="Path 47" d="M8.033,73.941a3.01,3.01,0,0,1-1.26-.279,2.964,2.964,0,0,1-1.743-2.72V67.653H3.615A3.619,3.619,0,0,1,0,64.037V43.6a3.619,3.619,0,0,1,3.615-3.615H36.623A3.619,3.619,0,0,1,40.238,43.6V64.037a3.619,3.619,0,0,1-3.615,3.615H15.606l-5.567,5.5q-.032.031-.066.06A2.972,2.972,0,0,1,8.033,73.941ZM3.615,42.5a1.1,1.1,0,0,0-1.1,1.1V64.037a1.1,1.1,0,0,0,1.1,1.1H6.287A1.257,1.257,0,0,1,7.545,66.4v4.547a.48.48,0,0,0,.766.384L14.205,65.5a1.257,1.257,0,0,1,.884-.363H36.623a1.1,1.1,0,0,0,1.1-1.1V43.6a1.1,1.1,0,0,0-1.1-1.1H3.615Z" fill="#3f4446"/>
      <text id="_9.2" data-name="9.2" transform="translate(7 60.863)" fill="#3f4446" font-size="18" font-family="inherit" font-weight="800"><tspan x="0" y="0">9.2</tspan></text>
    </g>
  </g>
</svg>
