<svg xmlns="http://www.w3.org/2000/svg" width="40.238" height="33.952" viewBox="0 0 40.238 33.952">
  <path id="Path_47" data-name="Path 47" d="M8.033,73.941a3.01,3.01,0,0,1-1.26-.279,2.964,2.964,0,0,1-1.743-2.72V67.653H3.615A3.619,3.619,0,0,1,0,64.037V43.6a3.619,3.619,0,0,1,3.615-3.615H36.623A3.619,3.619,0,0,1,40.238,43.6V64.037a3.619,3.619,0,0,1-3.615,3.615H15.606l-5.567,5.5q-.032.031-.066.06A2.972,2.972,0,0,1,8.033,73.941ZM3.615,42.5a1.1,1.1,0,0,0-1.1,1.1V64.037a1.1,1.1,0,0,0,1.1,1.1H6.287A1.257,1.257,0,0,1,7.545,66.4v4.547a.48.48,0,0,0,.766.384L14.205,65.5a1.257,1.257,0,0,1,.884-.363H36.623a1.1,1.1,0,0,0,1.1-1.1V43.6a1.1,1.1,0,0,0-1.1-1.1H3.615Z" transform="translate(0 -39.989)" fill="#3f4446"/>
</svg>
