<?xml version="1.0" encoding="utf-8"?>
<!-- Svg Vector Icons : http://www.onlinewebfonts.com/icon -->
<!DOCTYPE svg PUBLIC "-//W3C//DTD SVG 1.1//EN" "http://www.w3.org/Graphics/SVG/1.1/DTD/svg11.dtd">
<svg version="1.1" xmlns="http://www.w3.org/2000/svg" xmlns:xlink="http://www.w3.org/1999/xlink" x="0px" y="0px" viewBox="0 0 1000 1000" enable-background="new 0 0 1000 1000" xml:space="preserve">
<metadata> Svg Vector Icons : http://www.onlinewebfonts.com/icon </metadata>
<g><path d="M990,491.9c-2.9-77.9-157.9-95.4-334.7-90.1L552.7,246.4h4.5c9.4,0,17.1-7.6,17.1-17c0-9.3-7.7-16.9-17.1-16.9h-27L428.9,59c-9.4-16.3-30.3-21.8-46.6-12.4C366,56,360.4,76.7,369.8,92.9l3.6,5.5l58.5,319.2c-112.5,11.8-210.2,26.5-259.4,34.4c-0.5-0.7-0.2-1.6-0.8-2.2L68.9,341.1c-13.1-13.8-34.3-13.8-47.4,0L10,353.1c21.7,31.9,35.2,74.7,35.2,122c0,47.2-13.5,89.8-35,121.7l11.2,11.9c13.1,13.8,34.3,13.8,47.4,0l66-69.9c4,0.6,7.7,1.8,11.9,1.8c0,0,130.4,15.3,288.7,25l-62.1,336.1l-3.6,5.5c-9.4,16.1-3.8,36.9,12.5,46.2c16.3,9.4,37.2,3.8,46.6-12.4l89.7-135.5h21.6c9.4,0,17-7.6,17-16.9c0-9.1-7.3-16.3-16.4-16.6l132-198.6C844.9,572.6,992.3,554,990,491.9z"/></g>
</svg>