<svg xmlns="http://www.w3.org/2000/svg" width="26.804" height="26.804" viewBox="0 0 26.804 26.804">
  <g id="route" transform="translate(0 0)">
    <path id="Path_13" data-name="Path 13" d="M13.348,232.254a.783.783,0,1,0,0-1.566h-.956c0-.028,0-.055,0-.083a5.841,5.841,0,0,0-11.681,0c0,1.342.877,3.187,2.68,5.641,1.275,1.735,2.53,3.1,2.583,3.159a.785.785,0,0,0,1.155,0c.053-.057,1.308-1.424,2.583-3.159a17.349,17.349,0,0,0,2.337-3.992Zm-6.792,5.437c-.477-.554-1.189-1.411-1.9-2.375-2.067-2.812-2.375-4.159-2.375-4.711a4.27,4.27,0,0,1,8.54,0C10.823,232.228,8.405,235.559,6.556,237.691Z" transform="translate(-0.675 -213.02)" fill="#fff"/>
    <path id="Path_14" data-name="Path 14" d="M93.532,135.653a.787.787,0,0,0,.531.206l.066,0c.127-.011.257-.016.386-.016h3.364a.786.786,0,0,0,.787-.783.147.147,0,0,0,0-.015.776.776,0,0,0-.235-.544.785.785,0,0,0-.551-.224H94.515c-.171,0-.346.007-.517.021a.785.785,0,0,0-.515.252.776.776,0,0,0-.207.528c0,.022,0,.044,0,.065A.777.777,0,0,0,93.532,135.653Z" transform="translate(-88.394 -127.244)" fill="#fff"/>
    <path id="Path_15" data-name="Path 15" d="M.742,169.934l.046,0a.786.786,0,0,0,.785-.738h0a4.473,4.473,0,0,1,.389-1.587,4.526,4.526,0,0,1,.9-1.312.781.781,0,0,0-.015-1.107.789.789,0,0,0-1.112.014A6.079,6.079,0,0,0,0,169.107c0,.015,0,.03,0,.045a.784.784,0,0,0,.742.782Z" transform="translate(0 -156.332)" fill="#fff"/>
    <path id="Path_16" data-name="Path 16" d="M294.83,360.684a.787.787,0,0,0-1.362.536.776.776,0,0,0,.212.533,3,3,0,0,1,.72,2.787l0,.008v0h0a.781.781,0,0,0,.566.952.81.81,0,0,0,.2.025.785.785,0,0,0,.762-.588h0a4.549,4.549,0,0,0-1.092-4.256Z" transform="translate(-278.104 -341.565)" fill="#fff"/>
    <path id="Path_17" data-name="Path 17" d="M195.024,478.522a.792.792,0,0,0-.244.039h0l-.01,0a3.023,3.023,0,0,1-.927.145h-2.615a.783.783,0,1,0,0,1.566h2.616a4.6,4.6,0,0,0,1.425-.225.782.782,0,0,0,.543-.746.8.8,0,0,0-.039-.242A.785.785,0,0,0,195.024,478.522Z" transform="translate(-180.471 -453.47)" fill="#fff"/>
    <path id="Path_18" data-name="Path 18" d="M237.689,135.806h1.862a.785.785,0,1,0,0-1.571h-1.862a.785.785,0,1,0,0,1.571Z" transform="translate(-224.502 -127.207)" fill="#fff"/>
    <path id="Path_19" data-name="Path 19" d="M69.633,296.55a.785.785,0,0,1,.785.785v.01a.785.785,0,1,1-1.571,0v-.01a.785.785,0,0,1,.785-.785m0-1.571a2.359,2.359,0,0,0-2.356,2.356v.01a2.356,2.356,0,0,0,4.712,0v-.01A2.358,2.358,0,0,0,69.633,294.979Z" transform="translate(-63.755 -279.536)" fill="#fff"/>
    <path id="Path_20" data-name="Path 20" d="M361.656,3.963,354.943.1a.785.785,0,0,0-1.177.681V14.8a.785.785,0,0,0,1.571,0V8.956l6.319-3.632a.785.785,0,0,0,0-1.362Zm-6.319,3.182v-5l4.352,2.5Z" transform="translate(-335.246 0)" fill="#fff"/>
  </g>
</svg>
