<svg xmlns="http://www.w3.org/2000/svg" width="44.078" height="19.649" viewBox="0 0 44.078 19.649">
  <g id="taxi-sign" transform="translate(0 -116.673)">
    <g id="Group_14" data-name="Group 14" transform="translate(0 116.673)">
      <path id="Path_11" data-name="Path 11" d="M179.7,193.817h2.1l-1.06-2.855Z" transform="translate(-160.887 -183.185)" fill="#fff"/>
      <path id="Path_12" data-name="Path 12" d="M43.956,133.023l-4.016-14.5a2.522,2.522,0,0,0-2.431-1.849H6.567a2.523,2.523,0,0,0-2.431,1.849l-4.044,14.6a2.523,2.523,0,0,0,2.431,3.2H41.555a2.524,2.524,0,0,0,2.4-3.3Zm-29.945-9.2V130.1a.576.576,0,0,1-.576.576h-.617a.576.576,0,0,1-.576-.576v-6.273h-1.87a.576.576,0,0,1-.576-.576V122.9a.576.576,0,0,1,.576-.576h5.5a.576.576,0,0,1,.576.576v.348a.576.576,0,0,1-.576.576Zm9.744,6.6a.575.575,0,0,1-.477.253H22.6a.576.576,0,0,1-.537-.369l-.578-1.5H18.263l-.543,1.493a.576.576,0,0,1-.541.379h-.633a.576.576,0,0,1-.537-.785l2.8-7.2a.576.576,0,0,1,.537-.367H20.4a.576.576,0,0,1,.535.362l2.881,7.2A.575.575,0,0,1,23.755,130.418Zm7.537-.051a.576.576,0,0,1-.508.3H30.04a.576.576,0,0,1-.485-.265l-1.629-2.541-1.635,2.542a.576.576,0,0,1-.484.264h-.742a.576.576,0,0,1-.482-.891l2.268-3.463-2.011-3.105a.576.576,0,0,1,.483-.889h.693a.576.576,0,0,1,.488.271l1.455,2.33,1.422-2.326a.576.576,0,0,1,.491-.275h.678a.576.576,0,0,1,.485.886l-2.03,3.169,2.258,3.4A.575.575,0,0,1,31.292,130.368Zm2.99-.272a.576.576,0,0,1-.576.576h-.618a.576.576,0,0,1-.576-.576v-7.2a.576.576,0,0,1,.576-.576h.618a.576.576,0,0,1,.576.576Z" transform="translate(0 -116.673)" fill="#fff"/>
    </g>
  </g>
</svg>
