<?xml version="1.0" encoding="utf-8"?>
<!-- Svg Vector Icons : http://www.onlinewebfonts.com/icon -->
<!DOCTYPE svg PUBLIC "-//W3C//DTD SVG 1.1//EN" "http://www.w3.org/Graphics/SVG/1.1/DTD/svg11.dtd">
<svg version="1.1" xmlns="http://www.w3.org/2000/svg" xmlns:xlink="http://www.w3.org/1999/xlink" x="0px" y="0px" viewBox="0 0 1000 1000" enable-background="new 0 0 1000 1000" xml:space="preserve">
<metadata> Svg Vector Icons : http://www.onlinewebfonts.com/icon </metadata>
<g><g transform="translate(0.000000,511.000000) scale(0.100000,-0.100000)"><path d="M5031.8,2912.2c-200.4-82.7-381.8-286.4-429.5-480.5l-22.3-89.1h722.3h719.1l-19.1,73.2c-47.7,155.9-184.5,346.8-308.6,429.6c-108.2,70-171.8,85.9-356.4,92.3C5213.2,2944,5076.4,2931.3,5031.8,2912.2z"/><path d="M3463.2,2097.6c-41.4-66.8-280-474.1-528.2-906.8l-455-789.1H1433.2H386.4v-636.4V-871H243.2H100v-318.2v-318.2h143.2h143.2V-1746v-238.6h741.4h738.2l54.1-149.6c70-197.3,216.4-369.1,397.7-477.3c219.5-127.3,575.9-143.2,811.4-35c219.5,101.8,385,270.4,474.1,490l73.2,171.8l1384.1-6.4l1380.9-9.5l44.6-133.6c60.4-181.4,264.1-400.9,461.4-499.6c225.9-111.4,544.1-114.5,773.2-6.4c194.1,89.1,407.3,321.4,470.9,505.9l44.6,133.6l639.5,9.5l639.6,6.4l9.5,232.3l9.5,229.1l184.5,9.5l181.4,9.5v315V-871h-190.9h-190.9v636.4v636.4h-359.5h-362.7l-455,789.1c-251.4,432.7-490,840-531.4,906.8l-73.2,117.7h-2100h-2100L3463.2,2097.6z M8086.4,974.4l515.5-890.9h299.1H9200v-875v-875h-477.3h-474.1l-35,120.9c-82.7,273.6-359.5,534.5-645.9,614.1c-270.4,73.2-604.6-9.5-840-206.8c-85.9-73.2-232.3-324.6-276.8-470.9c-15.9-54.1-111.4-57.3-1393.6-57.3H3679.5l-60.5,165.5c-85.9,241.8-337.3,483.6-575.9,553.6c-474.1,136.8-960.9-98.6-1123.2-537.7l-63.6-165.5H1290H720.5l-9.5,868.6l-6.4,865.5h983.2h983.2l515.5,890.9l515.5,890.9h1934.5h1934.5L8086.4,974.4z M3078.2-1319.7c60.5-35,146.4-130.4,190.9-206.8c70-120.9,82.7-171.8,70-327.7c-50.9-693.6-1008.6-728.6-1155-44.5c-47.7,238.6,133.6,540.9,381.8,633.2C2725-1208.3,2935-1230.5,3078.2-1319.7z M7561.4-1281.5c321.3-149.6,448.6-470.9,305.4-782.7c-70-152.7-140-219.6-299.1-286.4c-350-146.4-757.3,82.7-808.2,455c-31.8,248.2,117.7,505.9,356.4,614.1C7278.2-1208.3,7399.1-1208.3,7561.4-1281.5z"/><path d="M3568.2,888.5c-200.4-346.8-381.8-661.8-407.3-700l-44.6-73.2h1005.5h1005.5v700v700h-598.2h-598.2L3568.2,888.5z"/><path d="M5477.3,815.4v-700h1339.5h1339.6l-60.5,105c-35,54.1-216.3,369.1-407.3,700l-343.6,595h-935.5h-932.3V815.4z"/><path d="M5184.5-447.8l-120.9-12.7v-206.8V-871h-190.9h-190.9v206.8v206.8H4475h-206.8v-206.8V-871H4475h206.8v-206.8v-206.8h206.8h206.8v206.8V-871h190.9h187.7l9.5-197.3l9.5-200.4H5700h206.8l9.5,200.4l9.5,197.3h203.7h206.8v203.6v203.7L6155-451c-101.8,6.3-194.1,9.5-206.8,3.2c-15.9-9.5-25.4-105-25.4-219.6V-871h-206.8h-206.8v206.8c0,143.2-12.7,206.8-38.2,206.8c-22.3,0-70,6.4-105,12.7C5330.9-438.3,5248.2-441.5,5184.5-447.8z"/></g></g>
</svg>