<?xml version="1.0" encoding="utf-8"?>
<!-- Svg Vector Icons : http://www.onlinewebfonts.com/icon -->
<!DOCTYPE svg PUBLIC "-//W3C//DTD SVG 1.1//EN" "http://www.w3.org/Graphics/SVG/1.1/DTD/svg11.dtd">
<svg version="1.1" xmlns="http://www.w3.org/2000/svg" xmlns:xlink="http://www.w3.org/1999/xlink" x="0px" y="0px" viewBox="0 0 1000 1000" enable-background="new 0 0 1000 1000" xml:space="preserve">
<metadata> Svg Vector Icons : http://www.onlinewebfonts.com/icon </metadata>
<g><path d="M11.7,850.1C11,682.3,9.8,373.3,10,205.4c0-34.1,21.4-57.5,51.1-55.4c37.7,2.7,53.1,28.5,53.1,57.9c0.1,73.8-3.8,288.5-3.8,362.3c0,12.8,0,25.6,0,40.6c260.8,0,517,0,778,0c0-42.1-0.1-82.3,0.1-122.4c0.1-14.3-0.5-28.7,1.9-42.8c4.1-24,20.2-39.3,49-39c28.8,0.3,45.3,16.5,48.5,40c3.2,23.5,1.6,47.5,1.5,71.3c-0.6,110.7-1.5,221.4-2.2,332.1c-32.5,0-65,0-97.6,0c0-42.3,0-84.7,0-128.3c-261.2,0-516.2,0-773.8,0c-2.3,43.7-4.5,86-6.7,128.3C76.7,850.1,44.2,850.1,11.7,850.1z"/><path d="M439.2,393.1c118.2,0,232.5-1.2,346.7,0.7c36,0.6,64.1,21.6,67.3,59.4c3.7,44.6,0.9,89.8,0.9,136.8c-139.4,0-275.9,0-414.8,0C439.2,524.6,439.2,461.1,439.2,393.1z"/><path d="M341.3,437.7c12.5-26.6,24-41.5,44.5-45.6c19.3-3.9,39.9,0.7,39.9,0.7V590H310.6C310.6,590,327.6,466.8,341.3,437.7z"/><path d="M311.8,501.8c-0.5,42.5-43.6,84.7-86.3,84.5c-45.5-0.2-86.1-42.9-84.8-89.1c1.3-46,39.9-83.7,85.5-83.4C272.8,414,312.4,454.7,311.8,501.8z"/></g>
</svg>